<svg width="601" height="211" viewBox="0 0 601 211" fill="none" xmlns="http://www.w3.org/2000/svg">
<rect width="601" height="211" rx="17" fill="white"/>
<path d="M378.384 104.51C375.494 104.51 372.978 103.949 370.836 102.827C368.694 101.671 367.028 100.073 365.838 98.033C364.682 95.993 364.104 93.647 364.104 90.995C364.104 88.309 364.682 85.963 365.838 83.957C367.028 81.917 368.677 80.336 370.785 79.214C372.893 78.058 375.341 77.48 378.129 77.48C380.815 77.48 383.144 78.024 385.116 79.112C387.088 80.2 388.618 81.713 389.706 83.651C390.794 85.589 391.338 87.867 391.338 90.485C391.338 91.029 391.321 91.539 391.287 92.015C391.253 92.457 391.202 92.882 391.134 93.29H368.592V88.241H384.963L383.637 89.159C383.637 87.051 383.127 85.504 382.107 84.518C381.121 83.498 379.761 82.988 378.027 82.988C376.021 82.988 374.457 83.668 373.335 85.028C372.247 86.388 371.703 88.428 371.703 91.148C371.703 93.8 372.247 95.772 373.335 97.064C374.457 98.356 376.123 99.002 378.333 99.002C379.557 99.002 380.611 98.798 381.495 98.39C382.379 97.982 383.042 97.319 383.484 96.401H390.675C389.825 98.917 388.363 100.906 386.289 102.368C384.249 103.796 381.614 104.51 378.384 104.51Z" fill="black"/>
<path d="M345.712 104V77.99H353.209V84.11H353.362V104H345.712ZM353.362 90.434L352.699 84.263C353.311 82.053 354.314 80.37 355.708 79.214C357.102 78.058 358.836 77.48 360.91 77.48C361.556 77.48 362.032 77.548 362.338 77.684V84.824C362.168 84.756 361.93 84.722 361.624 84.722C361.318 84.688 360.944 84.671 360.502 84.671C358.054 84.671 356.252 85.113 355.096 85.997C353.94 86.847 353.362 88.326 353.362 90.434Z" fill="black"/>
<path d="M326.764 104.51C323.908 104.51 321.392 103.949 319.216 102.827C317.074 101.671 315.391 100.073 314.167 98.033C312.977 95.959 312.382 93.579 312.382 90.893C312.382 88.207 312.977 85.861 314.167 83.855C315.391 81.849 317.074 80.285 319.216 79.163C321.392 78.041 323.908 77.48 326.764 77.48C329.654 77.48 332.17 78.041 334.312 79.163C336.488 80.285 338.171 81.849 339.361 83.855C340.551 85.861 341.146 88.207 341.146 90.893C341.146 93.579 340.534 95.959 339.31 98.033C338.12 100.073 336.437 101.671 334.261 102.827C332.119 103.949 329.62 104.51 326.764 104.51ZM326.764 98.492C327.954 98.492 329.025 98.186 329.977 97.574C330.963 96.962 331.745 96.095 332.323 94.973C332.901 93.817 333.19 92.44 333.19 90.842C333.19 88.496 332.561 86.694 331.303 85.436C330.079 84.144 328.566 83.498 326.764 83.498C324.962 83.498 323.432 84.144 322.174 85.436C320.95 86.728 320.338 88.53 320.338 90.842C320.338 92.44 320.627 93.817 321.205 94.973C321.783 96.095 322.548 96.962 323.5 97.574C324.486 98.186 325.574 98.492 326.764 98.492Z" fill="black"/>
<path d="M297.205 104.51C294.485 104.51 292.088 103.932 290.014 102.776C287.94 101.62 286.308 100.022 285.118 97.982C283.962 95.942 283.384 93.613 283.384 90.995C283.384 88.377 283.962 86.048 285.118 84.008C286.308 81.968 287.94 80.37 290.014 79.214C292.088 78.058 294.485 77.48 297.205 77.48C299.483 77.48 301.523 77.905 303.325 78.755C305.161 79.571 306.657 80.71 307.813 82.172C309.003 83.634 309.768 85.351 310.108 87.323H302.713C302.339 86.065 301.659 85.113 300.673 84.467C299.721 83.821 298.599 83.498 297.307 83.498C296.083 83.498 295.012 83.804 294.094 84.416C293.21 85.028 292.53 85.895 292.054 87.017C291.578 88.139 291.34 89.465 291.34 90.995C291.34 92.525 291.578 93.851 292.054 94.973C292.53 96.095 293.21 96.962 294.094 97.574C295.012 98.186 296.083 98.492 297.307 98.492C298.599 98.492 299.721 98.169 300.673 97.523C301.659 96.877 302.339 95.925 302.713 94.667H310.108C309.768 96.639 309.003 98.356 307.813 99.818C306.657 101.28 305.161 102.436 303.325 103.286C301.523 104.102 299.483 104.51 297.205 104.51Z" fill="black"/>
<path d="M271.268 104V77.99H278.918V104H271.268ZM271.013 74.522V66.26H279.173V74.522H271.013Z" fill="black"/>
<path d="M250.836 104V77.99H258.333V84.11H258.486V104H250.836ZM258.486 90.434L257.823 84.263C258.435 82.053 259.438 80.37 260.832 79.214C262.226 78.058 263.96 77.48 266.034 77.48C266.68 77.48 267.156 77.548 267.462 77.684V84.824C267.292 84.756 267.054 84.722 266.748 84.722C266.442 84.688 266.068 84.671 265.626 84.671C263.178 84.671 261.376 85.113 260.22 85.997C259.064 86.847 258.486 88.326 258.486 90.434Z" fill="black"/>
<path d="M215.55 104V67.28H232.992C235.712 67.28 238.041 67.756 239.979 68.708C241.951 69.66 243.464 70.986 244.518 72.686C245.606 74.386 246.15 76.375 246.15 78.653C246.15 80.931 245.606 82.937 244.518 84.671C243.43 86.405 241.9 87.765 239.928 88.751C237.99 89.703 235.678 90.179 232.992 90.179H221.772V84.161H232.584C234.386 84.161 235.78 83.668 236.766 82.682C237.786 81.662 238.296 80.336 238.296 78.704C238.296 77.072 237.786 75.763 236.766 74.777C235.78 73.791 234.386 73.298 232.584 73.298H223.404V104H215.55Z" fill="black"/>
<path d="M525.296 147.33L528.494 140.024L529.04 139.166L533.07 128.74H535.878L528.078 147.33H525.296ZM528.364 142L522.696 128.74H525.634L530.444 140.674L528.364 142Z" fill="#494949"/>
<path d="M514.203 142V128.74H516.777V132.042H516.907V142H514.203ZM516.907 135.084L516.569 131.938C516.881 130.811 517.418 129.953 518.181 129.364C518.943 128.775 519.853 128.48 520.911 128.48C521.309 128.48 521.587 128.515 521.743 128.584V131.132C521.656 131.097 521.535 131.08 521.379 131.08C521.223 131.063 521.032 131.054 520.807 131.054C519.507 131.054 518.527 131.392 517.869 132.068C517.227 132.744 516.907 133.749 516.907 135.084Z" fill="#494949"/>
<path d="M509.663 142.26C508.12 142.26 506.985 141.905 506.257 141.194C505.546 140.466 505.191 139.4 505.191 137.996V125.698L507.869 124.684V138.022C507.869 138.715 508.051 139.227 508.415 139.556C508.779 139.885 509.368 140.05 510.183 140.05C510.495 140.05 510.772 140.024 511.015 139.972C511.258 139.92 511.466 139.859 511.639 139.79V141.974C511.448 142.061 511.18 142.13 510.833 142.182C510.486 142.234 510.096 142.26 509.663 142.26ZM502.539 130.898V128.74H511.639V130.898H502.539Z" fill="#494949"/>
<path d="M496.262 142.26C494.529 142.26 493.151 141.879 492.128 141.116C491.105 140.353 490.525 139.279 490.386 137.892H492.882C493.003 138.655 493.35 139.244 493.922 139.66C494.511 140.059 495.309 140.258 496.314 140.258C497.198 140.258 497.874 140.102 498.342 139.79C498.81 139.478 499.044 139.036 499.044 138.464C499.044 138.048 498.905 137.701 498.628 137.424C498.368 137.129 497.848 136.887 497.068 136.696L494.936 136.202C493.601 135.873 492.605 135.387 491.946 134.746C491.305 134.087 490.984 133.281 490.984 132.328C490.984 131.132 491.426 130.196 492.31 129.52C493.211 128.827 494.442 128.48 496.002 128.48C497.545 128.48 498.784 128.827 499.72 129.52C500.673 130.213 501.211 131.184 501.332 132.432H498.836C498.732 131.808 498.429 131.331 497.926 131.002C497.441 130.655 496.773 130.482 495.924 130.482C495.127 130.482 494.511 130.629 494.078 130.924C493.662 131.201 493.454 131.591 493.454 132.094C493.454 132.51 493.61 132.857 493.922 133.134C494.251 133.411 494.789 133.645 495.534 133.836L497.718 134.382C498.983 134.694 499.937 135.205 500.578 135.916C501.219 136.609 501.54 137.45 501.54 138.438C501.54 139.634 501.072 140.57 500.136 141.246C499.217 141.922 497.926 142.26 496.262 142.26Z" fill="#494949"/>
<path d="M485.004 142V128.74H487.708V142H485.004ZM484.874 126.14V123.098H487.864V126.14H484.874Z" fill="#494949"/>
<path d="M474.622 147.59C472.958 147.59 471.58 147.209 470.488 146.446C469.414 145.701 468.764 144.704 468.538 143.456H471.086C471.26 144.028 471.641 144.479 472.23 144.808C472.837 145.137 473.643 145.302 474.648 145.302C475.948 145.302 476.919 144.981 477.56 144.34C478.202 143.699 478.522 142.745 478.522 141.48V138.62L478.756 138.672C478.496 139.677 477.933 140.475 477.066 141.064C476.2 141.636 475.16 141.922 473.946 141.922C472.785 141.922 471.762 141.645 470.878 141.09C469.994 140.535 469.31 139.764 468.824 138.776C468.339 137.771 468.096 136.601 468.096 135.266C468.096 133.914 468.348 132.727 468.85 131.704C469.353 130.681 470.055 129.893 470.956 129.338C471.875 128.783 472.941 128.506 474.154 128.506C475.402 128.506 476.434 128.809 477.248 129.416C478.08 130.005 478.609 130.846 478.834 131.938L478.626 131.964V128.74H481.2V141.454C481.2 143.361 480.611 144.86 479.432 145.952C478.271 147.044 476.668 147.59 474.622 147.59ZM474.752 139.738C475.914 139.738 476.841 139.331 477.534 138.516C478.245 137.701 478.6 136.583 478.6 135.162C478.6 133.775 478.245 132.683 477.534 131.886C476.841 131.089 475.905 130.69 474.726 130.69C473.548 130.69 472.612 131.097 471.918 131.912C471.225 132.709 470.878 133.819 470.878 135.24C470.878 136.627 471.225 137.727 471.918 138.542C472.629 139.339 473.574 139.738 474.752 139.738Z" fill="#494949"/>
<path d="M459.975 142.26C458.641 142.26 457.462 141.965 456.439 141.376C455.434 140.787 454.645 139.972 454.073 138.932C453.501 137.892 453.215 136.696 453.215 135.344C453.215 133.975 453.493 132.779 454.047 131.756C454.619 130.716 455.417 129.91 456.439 129.338C457.462 128.766 458.632 128.48 459.949 128.48C461.232 128.48 462.341 128.757 463.277 129.312C464.231 129.849 464.959 130.603 465.461 131.574C465.981 132.545 466.241 133.697 466.241 135.032C466.241 135.24 466.233 135.439 466.215 135.63C466.215 135.803 466.198 135.985 466.163 136.176H455.035V134.148H464.265L463.589 134.954C463.589 133.533 463.269 132.449 462.627 131.704C461.986 130.959 461.093 130.586 459.949 130.586C458.719 130.586 457.739 131.011 457.011 131.86C456.301 132.692 455.945 133.853 455.945 135.344C455.945 136.852 456.301 138.031 457.011 138.88C457.739 139.729 458.745 140.154 460.027 140.154C460.807 140.154 461.483 139.998 462.055 139.686C462.627 139.357 463.052 138.88 463.329 138.256H465.877C465.444 139.504 464.707 140.483 463.667 141.194C462.645 141.905 461.414 142.26 459.975 142.26Z" fill="#494949"/>
<path d="M437.878 142V123.28H445.262C446.614 123.28 447.767 123.505 448.72 123.956C449.674 124.389 450.41 125.005 450.93 125.802C451.45 126.582 451.71 127.509 451.71 128.584C451.71 129.659 451.45 130.595 450.93 131.392C450.41 132.189 449.674 132.813 448.72 133.264C447.767 133.715 446.614 133.94 445.262 133.94H439.958V131.704H445.184C446.432 131.704 447.377 131.435 448.018 130.898C448.677 130.343 449.006 129.581 449.006 128.61C449.006 127.639 448.686 126.885 448.044 126.348C447.403 125.811 446.45 125.542 445.184 125.542H440.634V142H437.878ZM448.694 142L439.568 132.562H442.922L452.646 142H448.694Z" fill="#494949"/>
<path d="M422.796 142V128.74H425.37V132.042H425.5V142H422.796ZM425.5 135.084L425.162 131.938C425.474 130.811 426.012 129.953 426.774 129.364C427.537 128.775 428.447 128.48 429.504 128.48C429.903 128.48 430.18 128.515 430.336 128.584V131.132C430.25 131.097 430.128 131.08 429.972 131.08C429.816 131.063 429.626 131.054 429.4 131.054C428.1 131.054 427.121 131.392 426.462 132.068C425.821 132.744 425.5 133.749 425.5 135.084Z" fill="#494949"/>
<path d="M413.765 142.26C412.43 142.26 411.251 141.965 410.229 141.376C409.223 140.787 408.435 139.972 407.863 138.932C407.291 137.892 407.005 136.696 407.005 135.344C407.005 133.975 407.282 132.779 407.837 131.756C408.409 130.716 409.206 129.91 410.229 129.338C411.251 128.766 412.421 128.48 413.739 128.48C415.021 128.48 416.131 128.757 417.067 129.312C418.02 129.849 418.748 130.603 419.251 131.574C419.771 132.545 420.031 133.697 420.031 135.032C420.031 135.24 420.022 135.439 420.005 135.63C420.005 135.803 419.987 135.985 419.953 136.176H408.825V134.148H418.055L417.379 134.954C417.379 133.533 417.058 132.449 416.417 131.704C415.775 130.959 414.883 130.586 413.739 130.586C412.508 130.586 411.529 131.011 410.801 131.86C410.09 132.692 409.735 133.853 409.735 135.344C409.735 136.852 410.09 138.031 410.801 138.88C411.529 139.729 412.534 140.154 413.817 140.154C414.597 140.154 415.273 139.998 415.845 139.686C416.417 139.357 416.841 138.88 417.119 138.256H419.667C419.233 139.504 418.497 140.483 417.457 141.194C416.434 141.905 415.203 142.26 413.765 142.26Z" fill="#494949"/>
<path d="M399.803 142.26C398.07 142.26 396.692 141.879 395.669 141.116C394.646 140.353 394.066 139.279 393.927 137.892H396.423C396.544 138.655 396.891 139.244 397.463 139.66C398.052 140.059 398.85 140.258 399.855 140.258C400.739 140.258 401.415 140.102 401.883 139.79C402.351 139.478 402.585 139.036 402.585 138.464C402.585 138.048 402.446 137.701 402.169 137.424C401.909 137.129 401.389 136.887 400.609 136.696L398.477 136.202C397.142 135.873 396.146 135.387 395.487 134.746C394.846 134.087 394.525 133.281 394.525 132.328C394.525 131.132 394.967 130.196 395.851 129.52C396.752 128.827 397.983 128.48 399.543 128.48C401.086 128.48 402.325 128.827 403.261 129.52C404.214 130.213 404.752 131.184 404.873 132.432H402.377C402.273 131.808 401.97 131.331 401.467 131.002C400.982 130.655 400.314 130.482 399.465 130.482C398.668 130.482 398.052 130.629 397.619 130.924C397.203 131.201 396.995 131.591 396.995 132.094C396.995 132.51 397.151 132.857 397.463 133.134C397.792 133.411 398.33 133.645 399.075 133.836L401.259 134.382C402.524 134.694 403.478 135.205 404.119 135.916C404.76 136.609 405.081 137.45 405.081 138.438C405.081 139.634 404.613 140.57 403.677 141.246C402.758 141.922 401.467 142.26 399.803 142.26Z" fill="#494949"/>
<path d="M385.404 142.26C384.052 142.26 382.865 141.965 381.842 141.376C380.82 140.769 380.022 139.946 379.45 138.906C378.878 137.849 378.592 136.653 378.592 135.318C378.592 133.966 378.878 132.779 379.45 131.756C380.04 130.733 380.837 129.936 381.842 129.364C382.865 128.775 384.052 128.48 385.404 128.48C386.774 128.48 387.97 128.775 388.992 129.364C390.015 129.936 390.804 130.733 391.358 131.756C391.93 132.779 392.216 133.966 392.216 135.318C392.216 136.653 391.93 137.849 391.358 138.906C390.804 139.946 390.015 140.769 388.992 141.376C387.97 141.965 386.774 142.26 385.404 142.26ZM385.404 140.05C386.219 140.05 386.921 139.851 387.51 139.452C388.117 139.053 388.594 138.499 388.94 137.788C389.287 137.077 389.46 136.245 389.46 135.292C389.46 133.871 389.079 132.753 388.316 131.938C387.571 131.106 386.6 130.69 385.404 130.69C384.226 130.69 383.255 131.106 382.492 131.938C381.747 132.77 381.374 133.888 381.374 135.292C381.374 136.245 381.539 137.077 381.868 137.788C382.215 138.499 382.692 139.053 383.298 139.452C383.922 139.851 384.624 140.05 385.404 140.05Z" fill="#494949"/>
<path d="M370.683 142.234C369.435 142.234 368.395 141.939 367.563 141.35C366.748 140.743 366.211 139.903 365.951 138.828L366.315 138.776V147.33H363.611V128.74H366.185V131.782L365.925 131.704C366.202 130.699 366.792 129.91 367.693 129.338C368.594 128.766 369.652 128.48 370.865 128.48C372.061 128.48 373.092 128.766 373.959 129.338C374.843 129.91 375.519 130.707 375.987 131.73C376.472 132.753 376.715 133.949 376.715 135.318C376.715 136.705 376.464 137.918 375.961 138.958C375.458 139.998 374.756 140.804 373.855 141.376C372.954 141.948 371.896 142.234 370.683 142.234ZM370.111 139.998C371.29 139.998 372.226 139.582 372.919 138.75C373.612 137.918 373.959 136.774 373.959 135.318C373.959 133.879 373.612 132.761 372.919 131.964C372.226 131.149 371.281 130.742 370.085 130.742C368.906 130.742 367.962 131.158 367.251 131.99C366.558 132.805 366.211 133.94 366.211 135.396C366.211 136.817 366.558 137.944 367.251 138.776C367.962 139.591 368.915 139.998 370.111 139.998Z" fill="#494949"/>
<path d="M339.414 142V128.74H341.988V131.86H342.118V142H339.414ZM348.358 142V133.342C348.358 132.441 348.15 131.782 347.734 131.366C347.318 130.95 346.72 130.742 345.94 130.742C345.212 130.742 344.553 130.915 343.964 131.262C343.392 131.591 342.941 132.059 342.612 132.666C342.282 133.255 342.118 133.957 342.118 134.772L341.78 131.678C342.213 130.69 342.863 129.91 343.73 129.338C344.614 128.766 345.602 128.48 346.694 128.48C348.011 128.48 349.06 128.861 349.84 129.624C350.637 130.387 351.036 131.392 351.036 132.64V142H348.358ZM357.302 142V133.342C357.302 132.441 357.085 131.782 356.652 131.366C356.236 130.95 355.638 130.742 354.858 130.742C354.147 130.742 353.497 130.915 352.908 131.262C352.336 131.591 351.876 132.059 351.53 132.666C351.2 133.255 351.036 133.957 351.036 134.772L350.49 131.678C350.94 130.69 351.616 129.91 352.518 129.338C353.436 128.766 354.459 128.48 355.586 128.48C356.92 128.48 357.986 128.87 358.784 129.65C359.581 130.413 359.98 131.435 359.98 132.718V142H357.302Z" fill="#494949"/>
<path d="M329.824 142.26C328.472 142.26 327.285 141.965 326.262 141.376C325.24 140.769 324.442 139.946 323.87 138.906C323.298 137.849 323.012 136.653 323.012 135.318C323.012 133.966 323.298 132.779 323.87 131.756C324.46 130.733 325.257 129.936 326.262 129.364C327.285 128.775 328.472 128.48 329.824 128.48C331.194 128.48 332.39 128.775 333.412 129.364C334.435 129.936 335.224 130.733 335.778 131.756C336.35 132.779 336.636 133.966 336.636 135.318C336.636 136.653 336.35 137.849 335.778 138.906C335.224 139.946 334.435 140.769 333.412 141.376C332.39 141.965 331.194 142.26 329.824 142.26ZM329.824 140.05C330.639 140.05 331.341 139.851 331.93 139.452C332.537 139.053 333.014 138.499 333.36 137.788C333.707 137.077 333.88 136.245 333.88 135.292C333.88 133.871 333.499 132.753 332.736 131.938C331.991 131.106 331.02 130.69 329.824 130.69C328.646 130.69 327.675 131.106 326.912 131.938C326.167 132.77 325.794 133.888 325.794 135.292C325.794 136.245 325.959 137.077 326.288 137.788C326.635 138.499 327.112 139.053 327.718 139.452C328.342 139.851 329.044 140.05 329.824 140.05Z" fill="#494949"/>
<path d="M313.049 142.26C311.749 142.26 310.544 142.026 309.435 141.558C308.326 141.073 307.364 140.405 306.549 139.556C305.752 138.689 305.128 137.667 304.677 136.488C304.226 135.309 304.001 134.018 304.001 132.614C304.001 131.21 304.218 129.927 304.651 128.766C305.102 127.587 305.726 126.573 306.523 125.724C307.338 124.857 308.3 124.19 309.409 123.722C310.518 123.254 311.723 123.02 313.023 123.02C314.479 123.02 315.788 123.315 316.949 123.904C318.11 124.476 319.055 125.291 319.783 126.348C320.528 127.405 320.988 128.636 321.161 130.04H318.457C318.232 128.567 317.634 127.423 316.663 126.608C315.71 125.776 314.505 125.36 313.049 125.36C311.818 125.36 310.726 125.663 309.773 126.27C308.837 126.859 308.109 127.7 307.589 128.792C307.069 129.867 306.809 131.141 306.809 132.614C306.809 134.07 307.069 135.353 307.589 136.462C308.126 137.554 308.863 138.403 309.799 139.01C310.735 139.617 311.818 139.92 313.049 139.92C314.505 139.92 315.718 139.513 316.689 138.698C317.677 137.866 318.275 136.713 318.483 135.24H321.213C321.022 136.661 320.554 137.901 319.809 138.958C319.064 139.998 318.11 140.813 316.949 141.402C315.805 141.974 314.505 142.26 313.049 142.26Z" fill="#494949"/>
<path d="M290.62 142.26C289.285 142.26 288.107 141.965 287.084 141.376C286.079 140.787 285.29 139.972 284.718 138.932C284.146 137.892 283.86 136.696 283.86 135.344C283.86 133.975 284.137 132.779 284.692 131.756C285.264 130.716 286.061 129.91 287.084 129.338C288.107 128.766 289.277 128.48 290.594 128.48C291.877 128.48 292.986 128.757 293.922 129.312C294.875 129.849 295.603 130.603 296.106 131.574C296.626 132.545 296.886 133.697 296.886 135.032C296.886 135.24 296.877 135.439 296.86 135.63C296.86 135.803 296.843 135.985 296.808 136.176H285.68V134.148H294.91L294.234 134.954C294.234 133.533 293.913 132.449 293.272 131.704C292.631 130.959 291.738 130.586 290.594 130.586C289.363 130.586 288.384 131.011 287.656 131.86C286.945 132.692 286.59 133.853 286.59 135.344C286.59 136.852 286.945 138.031 287.656 138.88C288.384 139.729 289.389 140.154 290.672 140.154C291.452 140.154 292.128 139.998 292.7 139.686C293.272 139.357 293.697 138.88 293.974 138.256H296.522C296.089 139.504 295.352 140.483 294.312 141.194C293.289 141.905 292.059 142.26 290.62 142.26Z" fill="#494949"/>
<path d="M280.69 142.26C279.148 142.26 278.012 141.905 277.284 141.194C276.574 140.466 276.218 139.4 276.218 137.996V125.698L278.896 124.684V138.022C278.896 138.715 279.078 139.227 279.442 139.556C279.806 139.885 280.396 140.05 281.21 140.05C281.522 140.05 281.8 140.024 282.042 139.972C282.285 139.92 282.493 139.859 282.666 139.79V141.974C282.476 142.061 282.207 142.13 281.86 142.182C281.514 142.234 281.124 142.26 280.69 142.26ZM273.566 130.898V128.74H282.666V130.898H273.566Z" fill="#494949"/>
<path d="M269.604 142C269.518 141.671 269.457 141.307 269.422 140.908C269.405 140.509 269.396 140.024 269.396 139.452H269.266V133.134C269.266 132.285 269.05 131.652 268.616 131.236C268.2 130.803 267.533 130.586 266.614 130.586C265.73 130.586 265.02 130.759 264.482 131.106C263.962 131.453 263.659 131.947 263.572 132.588H260.998C261.12 131.34 261.683 130.343 262.688 129.598C263.694 128.853 265.037 128.48 266.718 128.48C268.452 128.48 269.752 128.887 270.618 129.702C271.485 130.499 271.918 131.678 271.918 133.238V139.452C271.918 139.851 271.944 140.258 271.996 140.674C272.048 141.09 272.126 141.532 272.23 142H269.604ZM265.028 142.26C263.676 142.26 262.602 141.931 261.804 141.272C261.007 140.596 260.608 139.686 260.608 138.542C260.608 137.363 261.024 136.436 261.856 135.76C262.706 135.067 263.919 134.599 265.496 134.356L269.864 133.654V135.552L265.912 136.176C265.028 136.315 264.361 136.549 263.91 136.878C263.477 137.207 263.26 137.684 263.26 138.308C263.26 138.915 263.46 139.374 263.858 139.686C264.274 139.981 264.872 140.128 265.652 140.128C266.692 140.128 267.55 139.877 268.226 139.374C268.92 138.871 269.266 138.239 269.266 137.476L269.604 139.4C269.292 140.319 268.738 141.029 267.94 141.532C267.143 142.017 266.172 142.26 265.028 142.26Z" fill="#494949"/>
<path d="M251.905 142L246.497 128.74H249.383L253.803 140.778H252.529L256.897 128.74H259.679L254.297 142H251.905Z" fill="#494949"/>
<path d="M241.812 142V128.74H244.516V142H241.812ZM241.682 126.14V123.098H244.672V126.14H241.682Z" fill="#494949"/>
<path d="M232.087 142V128.74H234.661V132.042H234.791V142H232.087ZM234.791 135.084L234.453 131.938C234.765 130.811 235.303 129.953 236.065 129.364C236.828 128.775 237.738 128.48 238.795 128.48C239.194 128.48 239.471 128.515 239.627 128.584V131.132C239.541 131.097 239.419 131.08 239.263 131.08C239.107 131.063 238.917 131.054 238.691 131.054C237.391 131.054 236.412 131.392 235.753 132.068C235.112 132.744 234.791 133.749 234.791 135.084Z" fill="#494949"/>
<path d="M214.924 142V123.28H222.854C224.206 123.28 225.359 123.505 226.312 123.956C227.265 124.407 227.993 125.048 228.496 125.88C229.016 126.712 229.276 127.7 229.276 128.844C229.276 130.005 229.016 131.011 228.496 131.86C227.993 132.692 227.257 133.342 226.286 133.81C225.333 134.278 224.189 134.512 222.854 134.512H217.03V132.224H222.724C223.955 132.224 224.891 131.929 225.532 131.34C226.191 130.751 226.52 129.927 226.52 128.87C226.52 127.795 226.199 126.972 225.558 126.4C224.917 125.828 223.972 125.542 222.724 125.542H217.68V142H214.924Z" fill="#494949"/>
<path d="M81 157V136.729H108.056L81 157Z" fill="url(#paint0_linear_5_45)"/>
<path d="M107.134 55L81 78.6792H127.979C127.979 78.6792 139.954 78.0721 139.954 89.3045C139.954 100.537 127.979 99.6262 127.979 99.6262H108.654L81 124.823H137.523C137.523 124.823 167 124.823 167 89.9117C167 55 137.523 55 137.523 55H107.134Z" fill="url(#paint1_linear_5_45)"/>
<defs>
<linearGradient id="paint0_linear_5_45" x1="124" y1="55" x2="124" y2="92.2381" gradientUnits="userSpaceOnUse">
<stop stop-color="#FF602E"/>
<stop offset="1" stop-color="#FF3D00"/>
</linearGradient>
<linearGradient id="paint1_linear_5_45" x1="124" y1="55" x2="124" y2="92.2381" gradientUnits="userSpaceOnUse">
<stop stop-color="#FF602E"/>
<stop offset="1" stop-color="#FF3D00"/>
</linearGradient>
</defs>
</svg>
