<svg width="601" height="211" viewBox="0 0 601 211" fill="none" xmlns="http://www.w3.org/2000/svg">
<rect width="601" height="211" rx="17" fill="white"/>
<path d="M234.55 108V71.28H251.992C254.712 71.28 257.041 71.756 258.979 72.708C260.951 73.66 262.464 74.986 263.518 76.686C264.606 78.386 265.15 80.375 265.15 82.653C265.15 84.931 264.606 86.937 263.518 88.671C262.43 90.405 260.9 91.765 258.928 92.751C256.99 93.703 254.678 94.179 251.992 94.179H240.772V88.161H251.584C253.386 88.161 254.78 87.668 255.766 86.682C256.786 85.662 257.296 84.336 257.296 82.704C257.296 81.072 256.786 79.763 255.766 78.777C254.78 77.791 253.386 77.298 251.584 77.298H242.404V108H234.55ZM269.836 108V81.99H277.333V88.11H277.486V108H269.836ZM277.486 94.434L276.823 88.263C277.435 86.053 278.438 84.37 279.832 83.214C281.226 82.058 282.96 81.48 285.034 81.48C285.68 81.48 286.156 81.548 286.462 81.684V88.824C286.292 88.756 286.054 88.722 285.748 88.722C285.442 88.688 285.068 88.671 284.626 88.671C282.178 88.671 280.376 89.113 279.22 89.997C278.064 90.847 277.486 92.326 277.486 94.434ZM290.268 108V81.99H297.918V108H290.268ZM290.013 78.522V70.26H298.173V78.522H290.013ZM316.205 108.51C313.485 108.51 311.088 107.932 309.014 106.776C306.94 105.62 305.308 104.022 304.118 101.982C302.962 99.942 302.384 97.613 302.384 94.995C302.384 92.377 302.962 90.048 304.118 88.008C305.308 85.968 306.94 84.37 309.014 83.214C311.088 82.058 313.485 81.48 316.205 81.48C318.483 81.48 320.523 81.905 322.325 82.755C324.161 83.571 325.657 84.71 326.813 86.172C328.003 87.634 328.768 89.351 329.108 91.323H321.713C321.339 90.065 320.659 89.113 319.673 88.467C318.721 87.821 317.599 87.498 316.307 87.498C315.083 87.498 314.012 87.804 313.094 88.416C312.21 89.028 311.53 89.895 311.054 91.017C310.578 92.139 310.34 93.465 310.34 94.995C310.34 96.525 310.578 97.851 311.054 98.973C311.53 100.095 312.21 100.962 313.094 101.574C314.012 102.186 315.083 102.492 316.307 102.492C317.599 102.492 318.721 102.169 319.673 101.523C320.659 100.877 321.339 99.925 321.713 98.667H329.108C328.768 100.639 328.003 102.356 326.813 103.818C325.657 105.28 324.161 106.436 322.325 107.286C320.523 108.102 318.483 108.51 316.205 108.51ZM345.764 108.51C342.908 108.51 340.392 107.949 338.216 106.827C336.074 105.671 334.391 104.073 333.167 102.033C331.977 99.959 331.382 97.579 331.382 94.893C331.382 92.207 331.977 89.861 333.167 87.855C334.391 85.849 336.074 84.285 338.216 83.163C340.392 82.041 342.908 81.48 345.764 81.48C348.654 81.48 351.17 82.041 353.312 83.163C355.488 84.285 357.171 85.849 358.361 87.855C359.551 89.861 360.146 92.207 360.146 94.893C360.146 97.579 359.534 99.959 358.31 102.033C357.12 104.073 355.437 105.671 353.261 106.827C351.119 107.949 348.62 108.51 345.764 108.51ZM345.764 102.492C346.954 102.492 348.025 102.186 348.977 101.574C349.963 100.962 350.745 100.095 351.323 98.973C351.901 97.817 352.19 96.44 352.19 94.842C352.19 92.496 351.561 90.694 350.303 89.436C349.079 88.144 347.566 87.498 345.764 87.498C343.962 87.498 342.432 88.144 341.174 89.436C339.95 90.728 339.338 92.53 339.338 94.842C339.338 96.44 339.627 97.817 340.205 98.973C340.783 100.095 341.548 100.962 342.5 101.574C343.486 102.186 344.574 102.492 345.764 102.492ZM364.712 108V81.99H372.209V88.11H372.362V108H364.712ZM372.362 94.434L371.699 88.263C372.311 86.053 373.314 84.37 374.708 83.214C376.102 82.058 377.836 81.48 379.91 81.48C380.556 81.48 381.032 81.548 381.338 81.684V88.824C381.168 88.756 380.93 88.722 380.624 88.722C380.318 88.688 379.944 88.671 379.502 88.671C377.054 88.671 375.252 89.113 374.096 89.997C372.94 90.847 372.362 92.326 372.362 94.434ZM397.383 108.51C394.493 108.51 391.977 107.949 389.835 106.827C387.693 105.671 386.027 104.073 384.837 102.033C383.681 99.993 383.103 97.647 383.103 94.995C383.103 92.309 383.681 89.963 384.837 87.957C386.027 85.917 387.676 84.336 389.784 83.214C391.892 82.058 394.34 81.48 397.128 81.48C399.814 81.48 402.143 82.024 404.115 83.112C406.087 84.2 407.617 85.713 408.705 87.651C409.793 89.589 410.337 91.867 410.337 94.485C410.337 95.029 410.32 95.539 410.286 96.015C410.252 96.457 410.201 96.882 410.133 97.29H387.591V92.241H403.962L402.636 93.159C402.636 91.051 402.126 89.504 401.106 88.518C400.12 87.498 398.76 86.988 397.026 86.988C395.02 86.988 393.456 87.668 392.334 89.028C391.246 90.388 390.702 92.428 390.702 95.148C390.702 97.8 391.246 99.772 392.334 101.064C393.456 102.356 395.122 103.002 397.332 103.002C398.556 103.002 399.61 102.798 400.494 102.39C401.378 101.982 402.041 101.319 402.483 100.401H409.674C408.824 102.917 407.362 104.906 405.288 106.368C403.248 107.796 400.613 108.51 397.383 108.51Z" fill="black"/>
<path d="M233.924 146V127.28H241.854C243.206 127.28 244.359 127.505 245.312 127.956C246.265 128.407 246.993 129.048 247.496 129.88C248.016 130.712 248.276 131.7 248.276 132.844C248.276 134.005 248.016 135.011 247.496 135.86C246.993 136.692 246.257 137.342 245.286 137.81C244.333 138.278 243.189 138.512 241.854 138.512H236.03V136.224H241.724C242.955 136.224 243.891 135.929 244.532 135.34C245.191 134.751 245.52 133.927 245.52 132.87C245.52 131.795 245.199 130.972 244.558 130.4C243.917 129.828 242.972 129.542 241.724 129.542H236.68V146H233.924ZM251.087 146V132.74H253.661V136.042H253.791V146H251.087ZM253.791 139.084L253.453 135.938C253.765 134.811 254.303 133.953 255.065 133.364C255.828 132.775 256.738 132.48 257.795 132.48C258.194 132.48 258.471 132.515 258.627 132.584V135.132C258.541 135.097 258.419 135.08 258.263 135.08C258.107 135.063 257.917 135.054 257.691 135.054C256.391 135.054 255.412 135.392 254.753 136.068C254.112 136.744 253.791 137.749 253.791 139.084ZM260.812 146V132.74H263.516V146H260.812ZM260.682 130.14V127.098H263.672V130.14H260.682ZM270.905 146L265.497 132.74H268.383L272.803 144.778H271.529L275.897 132.74H278.679L273.297 146H270.905ZM288.604 146C288.518 145.671 288.457 145.307 288.422 144.908C288.405 144.509 288.396 144.024 288.396 143.452H288.266V137.134C288.266 136.285 288.05 135.652 287.616 135.236C287.2 134.803 286.533 134.586 285.614 134.586C284.73 134.586 284.02 134.759 283.482 135.106C282.962 135.453 282.659 135.947 282.572 136.588H279.998C280.12 135.34 280.683 134.343 281.688 133.598C282.694 132.853 284.037 132.48 285.718 132.48C287.452 132.48 288.752 132.887 289.618 133.702C290.485 134.499 290.918 135.678 290.918 137.238V143.452C290.918 143.851 290.944 144.258 290.996 144.674C291.048 145.09 291.126 145.532 291.23 146H288.604ZM284.028 146.26C282.676 146.26 281.602 145.931 280.804 145.272C280.007 144.596 279.608 143.686 279.608 142.542C279.608 141.363 280.024 140.436 280.856 139.76C281.706 139.067 282.919 138.599 284.496 138.356L288.864 137.654V139.552L284.912 140.176C284.028 140.315 283.361 140.549 282.91 140.878C282.477 141.207 282.26 141.684 282.26 142.308C282.26 142.915 282.46 143.374 282.858 143.686C283.274 143.981 283.872 144.128 284.652 144.128C285.692 144.128 286.55 143.877 287.226 143.374C287.92 142.871 288.266 142.239 288.266 141.476L288.604 143.4C288.292 144.319 287.738 145.029 286.94 145.532C286.143 146.017 285.172 146.26 284.028 146.26ZM299.69 146.26C298.148 146.26 297.012 145.905 296.284 145.194C295.574 144.466 295.218 143.4 295.218 141.996V129.698L297.896 128.684V142.022C297.896 142.715 298.078 143.227 298.442 143.556C298.806 143.885 299.396 144.05 300.21 144.05C300.522 144.05 300.8 144.024 301.042 143.972C301.285 143.92 301.493 143.859 301.666 143.79V145.974C301.476 146.061 301.207 146.13 300.86 146.182C300.514 146.234 300.124 146.26 299.69 146.26ZM292.566 134.898V132.74H301.666V134.898H292.566ZM309.62 146.26C308.285 146.26 307.107 145.965 306.084 145.376C305.079 144.787 304.29 143.972 303.718 142.932C303.146 141.892 302.86 140.696 302.86 139.344C302.86 137.975 303.137 136.779 303.692 135.756C304.264 134.716 305.061 133.91 306.084 133.338C307.107 132.766 308.277 132.48 309.594 132.48C310.877 132.48 311.986 132.757 312.922 133.312C313.875 133.849 314.603 134.603 315.106 135.574C315.626 136.545 315.886 137.697 315.886 139.032C315.886 139.24 315.877 139.439 315.86 139.63C315.86 139.803 315.843 139.985 315.808 140.176H304.68V138.148H313.91L313.234 138.954C313.234 137.533 312.913 136.449 312.272 135.704C311.631 134.959 310.738 134.586 309.594 134.586C308.363 134.586 307.384 135.011 306.656 135.86C305.945 136.692 305.59 137.853 305.59 139.344C305.59 140.852 305.945 142.031 306.656 142.88C307.384 143.729 308.389 144.154 309.672 144.154C310.452 144.154 311.128 143.998 311.7 143.686C312.272 143.357 312.697 142.88 312.974 142.256H315.522C315.089 143.504 314.352 144.483 313.312 145.194C312.289 145.905 311.059 146.26 309.62 146.26ZM332.049 146.26C330.749 146.26 329.544 146.026 328.435 145.558C327.325 145.073 326.363 144.405 325.549 143.556C324.751 142.689 324.127 141.667 323.677 140.488C323.226 139.309 323.001 138.018 323.001 136.614C323.001 135.21 323.217 133.927 323.651 132.766C324.101 131.587 324.725 130.573 325.523 129.724C326.337 128.857 327.299 128.19 328.409 127.722C329.518 127.254 330.723 127.02 332.023 127.02C333.479 127.02 334.787 127.315 335.949 127.904C337.11 128.476 338.055 129.291 338.783 130.348C339.528 131.405 339.987 132.636 340.161 134.04H337.457C337.231 132.567 336.633 131.423 335.663 130.608C334.709 129.776 333.505 129.36 332.049 129.36C330.818 129.36 329.726 129.663 328.773 130.27C327.837 130.859 327.109 131.7 326.589 132.792C326.069 133.867 325.809 135.141 325.809 136.614C325.809 138.07 326.069 139.353 326.589 140.462C327.126 141.554 327.863 142.403 328.799 143.01C329.735 143.617 330.818 143.92 332.049 143.92C333.505 143.92 334.718 143.513 335.689 142.698C336.677 141.866 337.275 140.713 337.483 139.24H340.213C340.022 140.661 339.554 141.901 338.809 142.958C338.063 143.998 337.11 144.813 335.949 145.402C334.805 145.974 333.505 146.26 332.049 146.26ZM348.824 146.26C347.472 146.26 346.285 145.965 345.262 145.376C344.24 144.769 343.442 143.946 342.87 142.906C342.298 141.849 342.012 140.653 342.012 139.318C342.012 137.966 342.298 136.779 342.87 135.756C343.46 134.733 344.257 133.936 345.262 133.364C346.285 132.775 347.472 132.48 348.824 132.48C350.194 132.48 351.39 132.775 352.412 133.364C353.435 133.936 354.224 134.733 354.778 135.756C355.35 136.779 355.636 137.966 355.636 139.318C355.636 140.653 355.35 141.849 354.778 142.906C354.224 143.946 353.435 144.769 352.412 145.376C351.39 145.965 350.194 146.26 348.824 146.26ZM348.824 144.05C349.639 144.05 350.341 143.851 350.93 143.452C351.537 143.053 352.014 142.499 352.36 141.788C352.707 141.077 352.88 140.245 352.88 139.292C352.88 137.871 352.499 136.753 351.736 135.938C350.991 135.106 350.02 134.69 348.824 134.69C347.646 134.69 346.675 135.106 345.912 135.938C345.167 136.77 344.794 137.888 344.794 139.292C344.794 140.245 344.959 141.077 345.288 141.788C345.635 142.499 346.112 143.053 346.718 143.452C347.342 143.851 348.044 144.05 348.824 144.05ZM358.414 146V132.74H360.988V135.86H361.118V146H358.414ZM367.358 146V137.342C367.358 136.441 367.15 135.782 366.734 135.366C366.318 134.95 365.72 134.742 364.94 134.742C364.212 134.742 363.553 134.915 362.964 135.262C362.392 135.591 361.941 136.059 361.612 136.666C361.282 137.255 361.118 137.957 361.118 138.772L360.78 135.678C361.213 134.69 361.863 133.91 362.73 133.338C363.614 132.766 364.602 132.48 365.694 132.48C367.011 132.48 368.06 132.861 368.84 133.624C369.637 134.387 370.036 135.392 370.036 136.64V146H367.358ZM376.302 146V137.342C376.302 136.441 376.085 135.782 375.652 135.366C375.236 134.95 374.638 134.742 373.858 134.742C373.147 134.742 372.497 134.915 371.908 135.262C371.336 135.591 370.876 136.059 370.53 136.666C370.2 137.255 370.036 137.957 370.036 138.772L369.49 135.678C369.94 134.69 370.616 133.91 371.518 133.338C372.436 132.766 373.459 132.48 374.586 132.48C375.92 132.48 376.986 132.87 377.784 133.65C378.581 134.413 378.98 135.435 378.98 136.718V146H376.302ZM389.683 146.234C388.435 146.234 387.395 145.939 386.563 145.35C385.748 144.743 385.211 143.903 384.951 142.828L385.315 142.776V151.33H382.611V132.74H385.185V135.782L384.925 135.704C385.202 134.699 385.792 133.91 386.693 133.338C387.594 132.766 388.652 132.48 389.865 132.48C391.061 132.48 392.092 132.766 392.959 133.338C393.843 133.91 394.519 134.707 394.987 135.73C395.472 136.753 395.715 137.949 395.715 139.318C395.715 140.705 395.464 141.918 394.961 142.958C394.458 143.998 393.756 144.804 392.855 145.376C391.954 145.948 390.896 146.234 389.683 146.234ZM389.111 143.998C390.29 143.998 391.226 143.582 391.919 142.75C392.612 141.918 392.959 140.774 392.959 139.318C392.959 137.879 392.612 136.761 391.919 135.964C391.226 135.149 390.281 134.742 389.085 134.742C387.906 134.742 386.962 135.158 386.251 135.99C385.558 136.805 385.211 137.94 385.211 139.396C385.211 140.817 385.558 141.944 386.251 142.776C386.962 143.591 387.915 143.998 389.111 143.998ZM404.404 146.26C403.052 146.26 401.865 145.965 400.842 145.376C399.82 144.769 399.022 143.946 398.45 142.906C397.878 141.849 397.592 140.653 397.592 139.318C397.592 137.966 397.878 136.779 398.45 135.756C399.04 134.733 399.837 133.936 400.842 133.364C401.865 132.775 403.052 132.48 404.404 132.48C405.774 132.48 406.97 132.775 407.992 133.364C409.015 133.936 409.804 134.733 410.358 135.756C410.93 136.779 411.216 137.966 411.216 139.318C411.216 140.653 410.93 141.849 410.358 142.906C409.804 143.946 409.015 144.769 407.992 145.376C406.97 145.965 405.774 146.26 404.404 146.26ZM404.404 144.05C405.219 144.05 405.921 143.851 406.51 143.452C407.117 143.053 407.594 142.499 407.94 141.788C408.287 141.077 408.46 140.245 408.46 139.292C408.46 137.871 408.079 136.753 407.316 135.938C406.571 135.106 405.6 134.69 404.404 134.69C403.226 134.69 402.255 135.106 401.492 135.938C400.747 136.77 400.374 137.888 400.374 139.292C400.374 140.245 400.539 141.077 400.868 141.788C401.215 142.499 401.692 143.053 402.298 143.452C402.922 143.851 403.624 144.05 404.404 144.05ZM418.803 146.26C417.07 146.26 415.692 145.879 414.669 145.116C413.646 144.353 413.066 143.279 412.927 141.892H415.423C415.544 142.655 415.891 143.244 416.463 143.66C417.052 144.059 417.85 144.258 418.855 144.258C419.739 144.258 420.415 144.102 420.883 143.79C421.351 143.478 421.585 143.036 421.585 142.464C421.585 142.048 421.446 141.701 421.169 141.424C420.909 141.129 420.389 140.887 419.609 140.696L417.477 140.202C416.142 139.873 415.146 139.387 414.487 138.746C413.846 138.087 413.525 137.281 413.525 136.328C413.525 135.132 413.967 134.196 414.851 133.52C415.752 132.827 416.983 132.48 418.543 132.48C420.086 132.48 421.325 132.827 422.261 133.52C423.214 134.213 423.752 135.184 423.873 136.432H421.377C421.273 135.808 420.97 135.331 420.467 135.002C419.982 134.655 419.314 134.482 418.465 134.482C417.668 134.482 417.052 134.629 416.619 134.924C416.203 135.201 415.995 135.591 415.995 136.094C415.995 136.51 416.151 136.857 416.463 137.134C416.792 137.411 417.33 137.645 418.075 137.836L420.259 138.382C421.524 138.694 422.478 139.205 423.119 139.916C423.76 140.609 424.081 141.45 424.081 142.438C424.081 143.634 423.613 144.57 422.677 145.246C421.758 145.922 420.467 146.26 418.803 146.26ZM432.764 146.26C431.43 146.26 430.251 145.965 429.228 145.376C428.223 144.787 427.434 143.972 426.862 142.932C426.29 141.892 426.004 140.696 426.004 139.344C426.004 137.975 426.282 136.779 426.836 135.756C427.408 134.716 428.206 133.91 429.228 133.338C430.251 132.766 431.421 132.48 432.738 132.48C434.021 132.48 435.13 132.757 436.066 133.312C437.02 133.849 437.748 134.603 438.25 135.574C438.77 136.545 439.03 137.697 439.03 139.032C439.03 139.24 439.022 139.439 439.004 139.63C439.004 139.803 438.987 139.985 438.952 140.176H427.824V138.148H437.054L436.378 138.954C436.378 137.533 436.058 136.449 435.416 135.704C434.775 134.959 433.882 134.586 432.738 134.586C431.508 134.586 430.528 135.011 429.8 135.86C429.09 136.692 428.734 137.853 428.734 139.344C428.734 140.852 429.09 142.031 429.8 142.88C430.528 143.729 431.534 144.154 432.816 144.154C433.596 144.154 434.272 143.998 434.844 143.686C435.416 143.357 435.841 142.88 436.118 142.256H438.666C438.233 143.504 437.496 144.483 436.456 145.194C435.434 145.905 434.203 146.26 432.764 146.26ZM441.796 146V132.74H444.37V136.042H444.5V146H441.796ZM444.5 139.084L444.162 135.938C444.474 134.811 445.012 133.953 445.774 133.364C446.537 132.775 447.447 132.48 448.504 132.48C448.903 132.48 449.18 132.515 449.336 132.584V135.132C449.25 135.097 449.128 135.08 448.972 135.08C448.816 135.063 448.626 135.054 448.4 135.054C447.1 135.054 446.121 135.392 445.462 136.068C444.821 136.744 444.5 137.749 444.5 139.084ZM456.878 146V127.28H464.262C465.614 127.28 466.767 127.505 467.72 127.956C468.674 128.389 469.41 129.005 469.93 129.802C470.45 130.582 470.71 131.509 470.71 132.584C470.71 133.659 470.45 134.595 469.93 135.392C469.41 136.189 468.674 136.813 467.72 137.264C466.767 137.715 465.614 137.94 464.262 137.94H458.958V135.704H464.184C465.432 135.704 466.377 135.435 467.018 134.898C467.677 134.343 468.006 133.581 468.006 132.61C468.006 131.639 467.686 130.885 467.044 130.348C466.403 129.811 465.45 129.542 464.184 129.542H459.634V146H456.878ZM467.694 146L458.568 136.562H461.922L471.646 146H467.694ZM478.975 146.26C477.641 146.26 476.462 145.965 475.439 145.376C474.434 144.787 473.645 143.972 473.073 142.932C472.501 141.892 472.215 140.696 472.215 139.344C472.215 137.975 472.493 136.779 473.047 135.756C473.619 134.716 474.417 133.91 475.439 133.338C476.462 132.766 477.632 132.48 478.949 132.48C480.232 132.48 481.341 132.757 482.277 133.312C483.231 133.849 483.959 134.603 484.461 135.574C484.981 136.545 485.241 137.697 485.241 139.032C485.241 139.24 485.233 139.439 485.215 139.63C485.215 139.803 485.198 139.985 485.163 140.176H474.035V138.148H483.265L482.589 138.954C482.589 137.533 482.269 136.449 481.627 135.704C480.986 134.959 480.093 134.586 478.949 134.586C477.719 134.586 476.739 135.011 476.011 135.86C475.301 136.692 474.945 137.853 474.945 139.344C474.945 140.852 475.301 142.031 476.011 142.88C476.739 143.729 477.745 144.154 479.027 144.154C479.807 144.154 480.483 143.998 481.055 143.686C481.627 143.357 482.052 142.88 482.329 142.256H484.877C484.444 143.504 483.707 144.483 482.667 145.194C481.645 145.905 480.414 146.26 478.975 146.26ZM493.622 151.59C491.958 151.59 490.58 151.209 489.488 150.446C488.413 149.701 487.763 148.704 487.538 147.456H490.086C490.259 148.028 490.641 148.479 491.23 148.808C491.837 149.137 492.643 149.302 493.648 149.302C494.948 149.302 495.919 148.981 496.56 148.34C497.201 147.699 497.522 146.745 497.522 145.48V142.62L497.756 142.672C497.496 143.677 496.933 144.475 496.066 145.064C495.199 145.636 494.159 145.922 492.946 145.922C491.785 145.922 490.762 145.645 489.878 145.09C488.994 144.535 488.309 143.764 487.824 142.776C487.339 141.771 487.096 140.601 487.096 139.266C487.096 137.914 487.347 136.727 487.85 135.704C488.353 134.681 489.055 133.893 489.956 133.338C490.875 132.783 491.941 132.506 493.154 132.506C494.402 132.506 495.433 132.809 496.248 133.416C497.08 134.005 497.609 134.846 497.834 135.938L497.626 135.964V132.74H500.2V145.454C500.2 147.361 499.611 148.86 498.432 149.952C497.271 151.044 495.667 151.59 493.622 151.59ZM493.752 143.738C494.913 143.738 495.841 143.331 496.534 142.516C497.245 141.701 497.6 140.583 497.6 139.162C497.6 137.775 497.245 136.683 496.534 135.886C495.841 135.089 494.905 134.69 493.726 134.69C492.547 134.69 491.611 135.097 490.918 135.912C490.225 136.709 489.878 137.819 489.878 139.24C489.878 140.627 490.225 141.727 490.918 142.542C491.629 143.339 492.573 143.738 493.752 143.738ZM504.003 146V132.74H506.707V146H504.003ZM503.873 130.14V127.098H506.863V130.14H503.873ZM515.262 146.26C513.529 146.26 512.151 145.879 511.128 145.116C510.105 144.353 509.525 143.279 509.386 141.892H511.882C512.003 142.655 512.35 143.244 512.922 143.66C513.511 144.059 514.309 144.258 515.314 144.258C516.198 144.258 516.874 144.102 517.342 143.79C517.81 143.478 518.044 143.036 518.044 142.464C518.044 142.048 517.905 141.701 517.628 141.424C517.368 141.129 516.848 140.887 516.068 140.696L513.936 140.202C512.601 139.873 511.605 139.387 510.946 138.746C510.305 138.087 509.984 137.281 509.984 136.328C509.984 135.132 510.426 134.196 511.31 133.52C512.211 132.827 513.442 132.48 515.002 132.48C516.545 132.48 517.784 132.827 518.72 133.52C519.673 134.213 520.211 135.184 520.332 136.432H517.836C517.732 135.808 517.429 135.331 516.926 135.002C516.441 134.655 515.773 134.482 514.924 134.482C514.127 134.482 513.511 134.629 513.078 134.924C512.662 135.201 512.454 135.591 512.454 136.094C512.454 136.51 512.61 136.857 512.922 137.134C513.251 137.411 513.789 137.645 514.534 137.836L516.718 138.382C517.983 138.694 518.937 139.205 519.578 139.916C520.219 140.609 520.54 141.45 520.54 142.438C520.54 143.634 520.072 144.57 519.136 145.246C518.217 145.922 516.926 146.26 515.262 146.26ZM528.663 146.26C527.12 146.26 525.985 145.905 525.257 145.194C524.546 144.466 524.191 143.4 524.191 141.996V129.698L526.869 128.684V142.022C526.869 142.715 527.051 143.227 527.415 143.556C527.779 143.885 528.368 144.05 529.183 144.05C529.495 144.05 529.772 144.024 530.015 143.972C530.258 143.92 530.466 143.859 530.639 143.79V145.974C530.448 146.061 530.18 146.13 529.833 146.182C529.486 146.234 529.096 146.26 528.663 146.26ZM521.539 134.898V132.74H530.639V134.898H521.539ZM533.203 146V132.74H535.777V136.042H535.907V146H533.203ZM535.907 139.084L535.569 135.938C535.881 134.811 536.418 133.953 537.181 133.364C537.943 132.775 538.853 132.48 539.911 132.48C540.309 132.48 540.587 132.515 540.743 132.584V135.132C540.656 135.097 540.535 135.08 540.379 135.08C540.223 135.063 540.032 135.054 539.807 135.054C538.507 135.054 537.527 135.392 536.869 136.068C536.227 136.744 535.907 137.749 535.907 139.084ZM544.296 151.33L547.494 144.024L548.04 143.166L552.07 132.74H554.878L547.078 151.33H544.296ZM547.364 146L541.696 132.74H544.634L549.444 144.674L547.364 146Z" fill="#494949"/>
<rect x="44" y="32" width="148" height="148" rx="17" fill="#3F0054"/>
<path d="M79 151V134H103L79 151Z" fill="#D9D9D9"/>
<path d="M79 151V134H103L79 151Z" fill="#E59AFE"/>
<path d="M102.703 60L79 81.0261H121.608C121.608 81.0261 132.47 80.487 132.47 90.4609C132.47 100.435 121.608 99.6261 121.608 99.6261H104.081L79 122H130.265C130.265 122 157 122 157 91C157 60 130.265 60 130.265 60H102.703Z" fill="#D9D9D9"/>
<path d="M102.703 60L79 81.0261H121.608C121.608 81.0261 132.47 80.487 132.47 90.4609C132.47 100.435 121.608 99.6261 121.608 99.6261H104.081L79 122H130.265C130.265 122 157 122 157 91C157 60 130.265 60 130.265 60H102.703Z" fill="#E59AFE"/>
</svg>
