
<svg width="601" height="211" viewBox="0 0 601 211" fill="none" xmlns="http://www.w3.org/2000/svg">
<rect width="601" height="211" rx="32" fill="white"/>
<path d="M128 154.215V134.895H153.761L128 154.215Z" fill="url(#paint0_linear_89_124)"/>
<path d="M152.883 57L128 79.5685H172.729C172.729 79.5685 184.131 78.9898 184.131 89.6953C184.131 100.401 172.729 99.5329 172.729 99.5329H154.329L128 123.548H181.816C181.816 123.548 209.882 123.548 209.882 90.274C209.882 57 181.816 57 181.816 57H152.883Z" fill="url(#paint1_linear_89_124)"/>
<path d="M475 108.582H445.914C446.1 111.279 447.332 113.465 449.61 115.139C451.889 116.767 454.493 117.58 457.423 117.58C462.073 117.58 465.607 116.116 468.025 113.186L472.489 118.069C468.49 122.207 463.282 124.276 456.865 124.276C451.656 124.276 447.216 122.556 443.542 119.115C439.915 115.627 438.102 110.977 438.102 105.165C438.102 99.3056 439.962 94.6555 443.682 91.2144C447.402 87.7734 451.773 86.0529 456.795 86.0529C461.863 86.0529 466.165 87.5874 469.699 90.6564C473.233 93.679 475 97.864 475 103.212V108.582ZM445.914 102.444H467.188C467.188 99.3288 466.211 96.934 464.258 95.26C462.305 93.586 459.887 92.749 457.004 92.749C454.168 92.749 451.61 93.6325 449.331 95.3995C447.053 97.12 445.914 99.4683 445.914 102.444Z" fill="black"/>
<path d="M435.698 93.9347C431.838 93.9347 428.932 95.1902 426.979 97.7013C425.026 100.212 424.049 103.584 424.049 107.815V123.718H416.237V86.6109H424.049V94.0742C425.305 91.7492 427.002 89.8427 429.141 88.3546C431.327 86.8666 433.629 86.0994 436.047 86.0529L436.116 93.9347C435.977 93.9347 435.837 93.9347 435.698 93.9347Z" fill="black"/>
<path d="M382.873 113.953C385.105 116.185 387.918 117.301 391.313 117.301C394.707 117.301 397.497 116.185 399.683 113.953C401.915 111.675 403.031 108.745 403.031 105.165C403.031 101.584 401.915 98.6778 399.683 96.4458C397.497 94.1672 394.707 93.028 391.313 93.028C387.918 93.028 385.105 94.1672 382.873 96.4458C380.687 98.6778 379.594 101.584 379.594 105.165C379.594 108.745 380.687 111.675 382.873 113.953ZM405.263 118.766C401.543 122.44 396.893 124.276 391.313 124.276C385.732 124.276 381.082 122.44 377.362 118.766C373.642 115.046 371.782 110.512 371.782 105.165C371.782 99.8171 373.642 95.3065 377.362 91.6329C381.082 87.9129 385.732 86.0529 391.313 86.0529C396.893 86.0529 401.543 87.9129 405.263 91.6329C408.983 95.3065 410.843 99.8171 410.843 105.165C410.843 110.512 408.983 115.046 405.263 118.766Z" fill="black"/>
<path d="M353.984 124.276C348.822 124.276 344.381 122.533 340.661 119.045C336.941 115.511 335.081 110.907 335.081 105.234C335.081 99.5613 337.011 94.9577 340.87 91.4237C344.776 87.8431 349.52 86.0529 355.1 86.0529C360.68 86.0529 365.399 87.9826 369.259 91.8422L364.655 97.492C361.447 94.702 358.215 93.307 354.96 93.307C351.705 93.307 348.869 94.3997 346.45 96.5853C344.079 98.7243 342.893 101.514 342.893 104.955C342.893 108.35 344.079 111.233 346.45 113.605C348.822 115.976 351.728 117.162 355.169 117.162C358.657 117.162 361.935 115.581 365.004 112.419L369.608 117.441C365.097 121.998 359.889 124.276 353.984 124.276Z" fill="black"/>
<path d="M329.681 123.718H321.869V86.6108H329.681V123.718ZM322.357 79.2172C321.381 78.2407 320.893 77.0782 320.893 75.7297C320.893 74.3812 321.381 73.2186 322.357 72.2421C323.334 71.2656 324.496 70.7773 325.845 70.7773C327.193 70.7773 328.356 71.2656 329.332 72.2421C330.309 73.2186 330.797 74.3812 330.797 75.7297C330.797 77.0782 330.309 78.2407 329.332 79.2172C328.356 80.1937 327.193 80.682 325.845 80.682C324.496 80.682 323.334 80.1937 322.357 79.2172Z" fill="black"/>
<path d="M317.094 93.9347C313.234 93.9347 310.328 95.1902 308.375 97.7013C306.422 100.212 305.445 103.584 305.445 107.815V123.718H297.633V86.6109H305.445V94.0742C306.701 91.7492 308.398 89.8427 310.537 88.3546C312.723 86.8666 315.025 86.0994 317.443 86.0529L317.512 93.9347C317.373 93.9347 317.233 93.9347 317.094 93.9347Z" fill="black"/>
<path d="M271.296 74.9625C278.69 74.9625 284.084 76.3808 287.478 79.2173C290.873 82.0539 292.57 86.4249 292.57 92.3305C292.57 98.2361 290.826 102.561 287.339 105.304C283.898 108.048 278.597 109.42 271.435 109.42H262.786V123.718H254.556V74.9625H271.296ZM272.342 101.956C276.899 101.956 279.992 101.096 281.619 99.3754C283.293 97.6084 284.13 95.0508 284.13 91.7028C284.13 88.3082 283.084 85.9134 280.991 84.5184C278.899 83.1234 275.62 82.4259 271.156 82.4259H262.786V101.956H272.342Z" fill="black"/>
<defs>
<linearGradient id="paint0_linear_89_124" x1="168.941" y1="57" x2="168.941" y2="92.4913" gradientUnits="userSpaceOnUse">
<stop stop-color="#FF602E"/>
<stop offset="1" stop-color="#FF3D00"/>
</linearGradient>
<linearGradient id="paint1_linear_89_124" x1="168.941" y1="57" x2="168.941" y2="92.4913" gradientUnits="userSpaceOnUse">
<stop stop-color="#FF602E"/>
<stop offset="1" stop-color="#FF3D00"/>
</linearGradient>
</defs>
</svg>
