<svg width="512" height="512" viewBox="0 0 512 512" fill="none" xmlns="http://www.w3.org/2000/svg">
<g clip-path="url(#clip0_7_60)">
<rect width="512" height="512" fill="#570074"/>
<rect width="512" height="512" fill="#3F0054"/>
<path d="M122 414V351H206L122 414Z" fill="#D9D9D9"/>
<path d="M122 414V351H206L122 414Z" fill="#E59AFE"/>
<path d="M203.138 97L122 170.591H267.852C267.852 170.591 305.032 168.704 305.032 203.613C305.032 238.522 267.852 235.691 267.852 235.691H207.855L122 314H297.484C297.484 314 389 314 389 205.5C389 97 297.484 97 297.484 97H203.138Z" fill="#D9D9D9"/>
<path d="M203.138 97L122 170.591H267.852C267.852 170.591 305.032 168.704 305.032 203.613C305.032 238.522 267.852 235.691 267.852 235.691H207.855L122 314H297.484C297.484 314 389 314 389 205.5C389 97 297.484 97 297.484 97H203.138Z" fill="#E59AFE"/>
</g>
<defs>
<clipPath id="clip0_7_60">
<rect width="512" height="512" fill="white"/>
</clipPath>
</defs>
</svg>
