
<svg width="480" height="158" viewBox="0 0 480 158" fill="none" xmlns="http://www.w3.org/2000/svg">
    <path d="M458.911 99.82C454.264 99.82 450.219 98.918 446.775 97.114C443.331 95.2553 440.652 92.686 438.739 89.406C436.88 86.126 435.951 82.354 435.951 78.09C435.951 73.7713 436.88 69.9993 438.739 66.774C440.652 63.494 443.303 60.952 446.693 59.148C450.082 57.2893 454.018 56.36 458.501 56.36C462.819 56.36 466.564 57.2347 469.735 58.984C472.905 60.7333 475.365 63.166 477.115 66.282C478.864 69.398 479.739 73.0607 479.739 77.27C479.739 78.1447 479.711 78.9647 479.657 79.73C479.602 80.4407 479.52 81.124 479.411 81.78H443.167V73.662H469.489L467.357 75.138C467.357 71.7487 466.537 69.2613 464.897 67.676C463.311 66.036 461.125 65.216 458.337 65.216C455.111 65.216 452.597 66.3093 450.793 68.496C449.043 70.6827 448.169 73.9627 448.169 78.336C448.169 82.6 449.043 85.7707 450.793 87.848C452.597 89.9253 455.275 90.964 458.829 90.964C460.797 90.964 462.491 90.636 463.913 89.98C465.334 89.324 466.4 88.258 467.111 86.782H478.673C477.306 90.8273 474.955 94.0253 471.621 96.376C468.341 98.672 464.104 99.82 458.911 99.82Z" fill="black"/>
    <path d="M406.379 99V57.18H418.433V67.02H418.679V99H406.379ZM418.679 77.188L417.613 67.266C418.597 63.7127 420.21 61.0067 422.451 59.148C424.693 57.2893 427.481 56.36 430.815 56.36C431.854 56.36 432.619 56.4693 433.111 56.688V68.168C432.838 68.0587 432.455 68.004 431.963 68.004C431.471 67.9493 430.87 67.922 430.159 67.922C426.223 67.922 423.326 68.6327 421.467 70.054C419.609 71.4207 418.679 73.7987 418.679 77.188Z" fill="black"/>
    <path d="M375.915 99.82C371.323 99.82 367.278 98.918 363.779 97.114C360.335 95.2553 357.629 92.686 355.661 89.406C353.748 86.0713 352.791 82.2447 352.791 77.926C352.791 73.6073 353.748 69.8353 355.661 66.61C357.629 63.3847 360.335 60.87 363.779 59.066C367.278 57.262 371.323 56.36 375.915 56.36C380.562 56.36 384.607 57.262 388.051 59.066C391.55 60.87 394.256 63.3847 396.169 66.61C398.082 69.8353 399.039 73.6073 399.039 77.926C399.039 82.2447 398.055 86.0713 396.087 89.406C394.174 92.686 391.468 95.2553 387.969 97.114C384.525 98.918 380.507 99.82 375.915 99.82ZM375.915 90.144C377.828 90.144 379.55 89.652 381.081 88.668C382.666 87.684 383.924 86.29 384.853 84.486C385.782 82.6273 386.247 80.4133 386.247 77.844C386.247 74.072 385.236 71.1747 383.213 69.152C381.245 67.0747 378.812 66.036 375.915 66.036C373.018 66.036 370.558 67.0747 368.535 69.152C366.567 71.2293 365.583 74.1267 365.583 77.844C365.583 80.4133 366.048 82.6273 366.977 84.486C367.906 86.29 369.136 87.684 370.667 88.668C372.252 89.652 374.002 90.144 375.915 90.144Z" fill="black"/>
    <path d="M328.389 99.82C324.015 99.82 320.161 98.8907 316.827 97.032C313.492 95.1733 310.868 92.604 308.955 89.324C307.096 86.044 306.167 82.2993 306.167 78.09C306.167 73.8807 307.096 70.136 308.955 66.856C310.868 63.576 313.492 61.0067 316.827 59.148C320.161 57.2893 324.015 56.36 328.389 56.36C332.051 56.36 335.331 57.0433 338.229 58.41C341.181 59.722 343.586 61.5533 345.445 63.904C347.358 66.2547 348.588 69.0153 349.135 72.186H337.244C336.643 70.1633 335.55 68.6327 333.965 67.594C332.434 66.5553 330.63 66.036 328.553 66.036C326.585 66.036 324.862 66.528 323.386 67.512C321.965 68.496 320.872 69.89 320.107 71.694C319.341 73.498 318.959 75.63 318.959 78.09C318.959 80.55 319.341 82.682 320.107 84.486C320.872 86.29 321.965 87.684 323.386 88.668C324.862 89.652 326.585 90.144 328.553 90.144C330.63 90.144 332.434 89.6247 333.965 88.586C335.55 87.5473 336.643 86.0167 337.244 83.994H349.135C348.588 87.1647 347.358 89.9253 345.445 92.276C343.586 94.6267 341.181 96.4853 338.229 97.852C335.331 99.164 332.051 99.82 328.389 99.82Z" fill="black"/>
    <path d="M286.685 98.9999V57.1799H298.985V98.9999H286.685ZM286.275 51.6039V38.3199H299.395V51.6039H286.275Z" fill="black"/>
    <path d="M253.834 99V57.18H265.888V67.02H266.134V99H253.834ZM266.134 77.188L265.068 67.266C266.052 63.7127 267.664 61.0067 269.906 59.148C272.147 57.2893 274.935 56.36 278.27 56.36C279.308 56.36 280.074 56.4693 280.566 56.688V68.168C280.292 68.0587 279.91 68.004 279.418 68.004C278.926 67.9493 278.324 67.922 277.614 67.922C273.678 67.922 270.78 68.6327 268.922 70.054C267.063 71.4207 266.134 73.7987 266.134 77.188Z" fill="black"/>
    <path d="M197.1 99V39.96H225.144C229.517 39.96 233.262 40.7253 236.378 42.256C239.549 43.7866 241.981 45.9186 243.676 48.652C245.425 51.3853 246.3 54.5833 246.3 58.246C246.3 61.9086 245.425 65.134 243.676 67.922C241.927 70.71 239.467 72.8966 236.296 74.482C233.18 76.0126 229.463 76.778 225.144 76.778H207.104V67.102H224.488C227.385 67.102 229.627 66.3093 231.212 64.724C232.852 63.084 233.672 60.952 233.672 58.328C233.672 55.704 232.852 53.5993 231.212 52.014C229.627 50.4286 227.385 49.636 224.488 49.636H209.728V99H197.1Z" fill="black"/>
    <path d="M0 158V126.599H41.8675L0 158Z" fill="url(#paint0_linear_10_13)"/>
    <path d="M40.4409 0L0 36.6796H72.696C72.696 36.6796 91.2272 35.7391 91.2272 53.1384C91.2272 70.5377 72.696 69.1269 72.696 69.1269H42.7921L0 108.158H87.4653C87.4653 108.158 133.079 108.158 133.079 54.0789C133.079 0 87.4653 0 87.4653 0H40.4409Z" fill="url(#paint1_linear_10_13)"/>
    <defs>
        <linearGradient id="paint0_linear_10_13" x1="66.5394" y1="0" x2="66.5394" y2="57.6825" gradientUnits="userSpaceOnUse">
            <stop stop-color="#FF602E"/>
            <stop offset="1" stop-color="#FF3D00"/>
        </linearGradient>
        <linearGradient id="paint1_linear_10_13" x1="66.5394" y1="0" x2="66.5394" y2="57.6825" gradientUnits="userSpaceOnUse">
            <stop stop-color="#FF602E"/>
            <stop offset="1" stop-color="#FF3D00"/>
        </linearGradient>
    </defs>
</svg>
