<svg width="458" height="129" viewBox="0 0 458 129" fill="none" xmlns="http://www.w3.org/2000/svg">
<path d="M0 128.225V102.742H33.9775L0 128.225Z" fill="url(#paint0_linear_89_191)"/>
<path d="M32.8198 0L0 29.7673H58.9964C58.9964 29.7673 74.0353 29.004 74.0353 43.1244C74.0353 57.2448 58.9964 56.0999 58.9964 56.0999H34.7279L0 87.7753H70.9823C70.9823 87.7753 108 87.7753 108 43.8876C108 0 70.9823 0 70.9823 0H32.8198Z" fill="url(#paint1_linear_89_191)"/>
<path d="M189.004 23.692C198.756 23.692 205.87 25.5627 210.348 29.304C214.825 33.0453 217.064 38.8107 217.064 46.6C217.064 54.3893 214.764 60.0933 210.164 63.712C205.625 67.3307 198.633 69.14 189.188 69.14H177.78V88H166.924V23.692H189.004ZM190.384 59.296C196.394 59.296 200.473 58.1613 202.62 55.892C204.828 53.5613 205.932 50.188 205.932 45.772C205.932 41.2947 204.552 38.136 201.792 36.296C199.032 34.456 194.708 33.536 188.82 33.536H177.78V59.296H190.384Z" fill="white"/>
<path d="M249.41 48.716C244.32 48.716 240.486 50.372 237.91 53.684C235.334 56.996 234.046 61.4427 234.046 67.024V88H223.742V39.056H234.046V48.9C235.702 45.8333 237.941 43.3187 240.762 41.356C243.645 39.3933 246.681 38.3813 249.87 38.32L249.962 48.716C249.778 48.716 249.594 48.716 249.41 48.716Z" fill="white"/>
<path d="M266.013 88H255.709V39.056H266.013V88ZM256.353 29.304C255.065 28.016 254.421 26.4827 254.421 24.704C254.421 22.9253 255.065 21.392 256.353 20.104C257.641 18.816 259.174 18.172 260.953 18.172C262.732 18.172 264.265 18.816 265.553 20.104C266.841 21.392 267.485 22.9253 267.485 24.704C267.485 26.4827 266.841 28.016 265.553 29.304C264.265 30.592 262.732 31.236 260.953 31.236C259.174 31.236 257.641 30.592 256.353 29.304Z" fill="white"/>
<path d="M298.067 88.736C291.259 88.736 285.402 86.436 280.495 81.836C275.588 77.1747 273.135 71.1027 273.135 63.62C273.135 56.1373 275.68 50.0653 280.771 45.404C285.923 40.6813 292.179 38.32 299.539 38.32C306.899 38.32 313.124 40.8653 318.215 45.956L312.143 53.408C307.911 49.728 303.648 47.888 299.355 47.888C295.062 47.888 291.32 49.3293 288.131 52.212C285.003 55.0333 283.439 58.7133 283.439 63.252C283.439 67.7293 285.003 71.532 288.131 74.66C291.259 77.788 295.092 79.352 299.631 79.352C304.231 79.352 308.555 77.2667 312.603 73.096L318.675 79.72C312.726 85.7307 305.856 88.736 298.067 88.736Z" fill="white"/>
<path d="M336.171 75.12C339.115 78.064 342.825 79.536 347.303 79.536C351.78 79.536 355.46 78.064 358.343 75.12C361.287 72.1147 362.759 68.2507 362.759 63.528C362.759 58.8053 361.287 54.972 358.343 52.028C355.46 49.0227 351.78 47.52 347.303 47.52C342.825 47.52 339.115 49.0227 336.171 52.028C333.288 54.972 331.847 58.8053 331.847 63.528C331.847 68.2507 333.288 72.1147 336.171 75.12ZM365.703 81.468C360.796 86.3133 354.663 88.736 347.303 88.736C339.943 88.736 333.809 86.3133 328.903 81.468C323.996 76.5613 321.543 70.5813 321.543 63.528C321.543 56.4747 323.996 50.5253 328.903 45.68C333.809 40.7733 339.943 38.32 347.303 38.32C354.663 38.32 360.796 40.7733 365.703 45.68C370.609 50.5253 373.063 56.4747 373.063 63.528C373.063 70.5813 370.609 76.5613 365.703 81.468Z" fill="white"/>
<path d="M405.846 48.716C400.756 48.716 396.922 50.372 394.346 53.684C391.77 56.996 390.482 61.4427 390.482 67.024V88H380.178V39.056H390.482V48.9C392.138 45.8333 394.377 43.3187 397.198 41.356C400.081 39.3933 403.117 38.3813 406.306 38.32L406.398 48.716C406.214 48.716 406.03 48.716 405.846 48.716Z" fill="white"/>
<path d="M457.685 68.036H419.321C419.566 71.5933 421.191 74.476 424.197 76.684C427.202 78.8307 430.637 79.904 434.501 79.904C440.634 79.904 445.295 77.972 448.485 74.108L454.373 80.548C449.098 86.0067 442.229 88.736 433.765 88.736C426.895 88.736 421.038 86.4667 416.193 81.928C411.409 77.328 409.017 71.1947 409.017 63.528C409.017 55.8 411.47 49.6667 416.377 45.128C421.283 40.5893 427.049 38.32 433.673 38.32C440.358 38.32 446.031 40.344 450.693 44.392C455.354 48.3787 457.685 53.8987 457.685 60.952V68.036ZM419.321 59.94H447.381C447.381 55.8307 446.093 52.672 443.517 50.464C440.941 48.256 437.751 47.152 433.949 47.152C430.207 47.152 426.834 48.3173 423.829 50.648C420.823 52.9173 419.321 56.0147 419.321 59.94Z" fill="white"/>
<defs>
<linearGradient id="paint0_linear_89_191" x1="54" y1="0" x2="54" y2="46.8122" gradientUnits="userSpaceOnUse">
<stop stop-color="#FF602E"/>
<stop offset="1" stop-color="#FF3D00"/>
</linearGradient>
<linearGradient id="paint1_linear_89_191" x1="54" y1="0" x2="54" y2="46.8122" gradientUnits="userSpaceOnUse">
<stop stop-color="#FF602E"/>
<stop offset="1" stop-color="#FF3D00"/>
</linearGradient>
</defs>
</svg>
